<?xml version="1.0" encoding="utf-8"?><svg xmlns="http://www.w3.org/2000/svg" xmlns:xlink="http://www.w3.org/1999/xlink"><symbol viewBox="0 0 24 24" fill="none" id="basket" xmlns="http://www.w3.org/2000/svg"><path d="M21 6L21.9285 6.37139C22.0517 6.0633 22.0141 5.71414 21.8281 5.43937C21.642 5.1646 21.3318 5 21 5V6ZM18 13.5L18.0905 14.4959C18.4651 14.4618 18.7888 14.2206 18.9285 13.8714L18 13.5ZM6 18L5.03848 17.7253C4.95227 18.027 5.01269 18.3517 5.20165 18.6022C5.39061 18.8527 5.68621 19 6 19V18ZM18 19C18.5523 19 19 18.5523 19 18C19 17.4477 18.5523 17 18 17V19ZM3.70711 3.29289C3.31658 2.90237 2.68342 2.90237 2.29289 3.29289C1.90237 3.68342 1.90237 4.31658 2.29289 4.70711L3.70711 3.29289ZM5 7H21V5H5V7ZM20.0715 5.62861L17.0715 13.1286L18.9285 13.8714L21.9285 6.37139L20.0715 5.62861ZM17.9095 12.5041L6.90946 13.5041L7.09054 15.4959L18.0905 14.4959L17.9095 12.5041ZM6.03848 14.2253L5.03848 17.7253L6.96152 18.2747L7.96152 14.7747L6.03848 14.2253ZM6 19L18 19V17L6 17V19ZM7.97342 14.271L5.97342 5.77096L4.02658 6.22904L6.02658 14.729L7.97342 14.271ZM5.70711 5.29289L3.70711 3.29289L2.29289 4.70711L4.29289 6.70711L5.70711 5.29289Z" fill="#0D0D0F"/><circle cx="16.75" cy="20.75" r="1.25" fill="#0D0D0F"/><circle cx="7.25" cy="20.75" r="1.25" fill="#0D0D0F"/></symbol><symbol viewBox="0 0 24 24" fill="none" id="burger" xmlns="http://www.w3.org/2000/svg"><path d="M22 8L2 8" stroke="#0D0D0F" stroke-width="2" stroke-linecap="round"/><path d="M12 16H2" stroke="#0D0D0F" stroke-width="2" stroke-linecap="round"/></symbol><symbol viewBox="0 0 24 24" fill="none" id="burger_icon" xmlns="http://www.w3.org/2000/svg"><path d="M22 8L2 8" stroke="#0D0D0F" stroke-width="2" stroke-linecap="round"/><path d="M12 16H2" stroke="#0D0D0F" stroke-width="2" stroke-linecap="round"/></symbol><symbol viewBox="0 0 24 24" fill="none" id="close" xmlns="http://www.w3.org/2000/svg"><path d="M4.5 4.5L19.5 19.5" stroke="#0D0D0F" stroke-width="2" stroke-linecap="round" stroke-linejoin="round"/><path d="M19.5 4.5L4.5 19.5" stroke="#0D0D0F" stroke-width="2" stroke-linecap="round" stroke-linejoin="round"/></symbol><symbol viewBox="0 0 44 44" fill="none" id="compare" xmlns="http://www.w3.org/2000/svg"><rect x="24" y="31" width="7" height="4" transform="rotate(-90 24 31)" stroke="#0D0D0F" stroke-width="2" stroke-linejoin="round"/><rect x="16" y="31" width="13" height="4" transform="rotate(-90 16 31)" stroke="#0D0D0F" stroke-width="2" stroke-linejoin="round"/><rect x="20" y="31" width="18" height="4" transform="rotate(-90 20 31)" stroke="#0D0D0F" stroke-width="2" stroke-linejoin="round"/><path d="M13 31L31 31" stroke="#0D0D0F" stroke-width="2" stroke-linecap="round"/></symbol><symbol viewBox="0 0 44 44" fill="none" id="favorite" xmlns="http://www.w3.org/2000/svg"><path d="M13 20.0002C13 24.0002 19.4999 28.8464 21.9999 31C24.4999 28.8464 31 24.0002 31 20.0002C31 17.0002 28.9999 15.0001 26.4999 15C24.4999 15.0002 22.9453 16.5142 21.9999 18.2593C21.0594 16.5231 19.4999 14.9999 17.4999 15C14.9999 15.0001 13 17.0002 13 20.0002Z" stroke="#0D0D0F" stroke-width="2" stroke-linejoin="round"/></symbol><symbol viewBox="0 0 19 19" fill="none" id="search" xmlns="http://www.w3.org/2000/svg"><circle cx="9" cy="9" r="8" stroke="#0D0D0F" stroke-width="2" stroke-linecap="round" stroke-linejoin="round"/><path d="M15 15L18 18" stroke="#0D0D0F" stroke-width="2" stroke-linecap="round" stroke-linejoin="round"/></symbol></svg>