<svg width="24" height="24" viewBox="0 0 24 24" fill="none" xmlns="http://www.w3.org/2000/svg">
<path d="M21 6L21.9285 6.37139C22.0517 6.0633 22.0141 5.71414 21.8281 5.43937C21.642 5.1646 21.3318 5 21 5V6ZM18 13.5L18.0905 14.4959C18.4651 14.4618 18.7888 14.2206 18.9285 13.8714L18 13.5ZM6 18L5.03848 17.7253C4.95227 18.027 5.01269 18.3517 5.20165 18.6022C5.39061 18.8527 5.68621 19 6 19V18ZM18 19C18.5523 19 19 18.5523 19 18C19 17.4477 18.5523 17 18 17V19ZM3.70711 3.29289C3.31658 2.90237 2.68342 2.90237 2.29289 3.29289C1.90237 3.68342 1.90237 4.31658 2.29289 4.70711L3.70711 3.29289ZM5 7H21V5H5V7ZM20.0715 5.62861L17.0715 13.1286L18.9285 13.8714L21.9285 6.37139L20.0715 5.62861ZM17.9095 12.5041L6.90946 13.5041L7.09054 15.4959L18.0905 14.4959L17.9095 12.5041ZM6.03848 14.2253L5.03848 17.7253L6.96152 18.2747L7.96152 14.7747L6.03848 14.2253ZM6 19L18 19V17L6 17V19ZM7.97342 14.271L5.97342 5.77096L4.02658 6.22904L6.02658 14.729L7.97342 14.271ZM5.70711 5.29289L3.70711 3.29289L2.29289 4.70711L4.29289 6.70711L5.70711 5.29289Z" fill="#0D0D0F"/>
<circle cx="16.75" cy="20.75" r="1.25" fill="#0D0D0F"/>
<circle cx="7.25" cy="20.75" r="1.25" fill="#0D0D0F"/>
</svg>
