<svg width="36" height="36" viewBox="0 0 36 36" fill="none" xmlns="http://www.w3.org/2000/svg">
<path d="M10.0203 15.9786L9.04245 15.7693V15.7693L10.0203 15.9786ZM15.9786 10.0203L15.7693 9.04245L15.7693 9.04245L15.9786 10.0203ZM26.0393 18.5908L25.0393 18.5923V18.5923L26.0393 18.5908ZM27.375 22.4252L26.6679 23.1323V23.1323L27.375 22.4252ZM31.7885 28.253C32.179 28.6435 32.8122 28.6435 33.2027 28.253C33.5932 27.8624 33.5932 27.2293 33.2027 26.8387L31.7885 28.253ZM26.8388 33.2027C27.2293 33.5933 27.8625 33.5933 28.253 33.2027C28.6435 32.8122 28.6435 32.179 28.253 31.7885L26.8388 33.2027ZM22.4252 27.375L21.7181 28.0821V28.0821L22.4252 27.375ZM18.5908 26.0393L18.5892 27.0393V27.0393L18.5908 26.0393ZM15.6366 10.3087L16.559 10.6949L16.559 10.6949L15.6366 10.3087ZM15.525 10.5753L14.6026 10.1891C14.4459 10.5635 14.5309 10.9954 14.8179 11.2824L15.525 10.5753ZM10.5753 15.525L11.2824 14.8179C10.9954 14.5309 10.5635 14.4459 10.1891 14.6026L10.5753 15.525ZM10.3087 15.6366L10.6949 16.559L10.6949 16.559L10.3087 15.6366ZM5.04648 9.50525L5.81105 8.86071L5.80987 8.85931L5.04648 9.50525ZM9.50525 5.04648L8.85931 5.80987L8.8607 5.81104L9.50525 5.04648ZM10.9702 6.2815L11.6148 5.51694L11.6148 5.51693L10.9702 6.2815ZM6.28149 10.9702L7.04606 10.3257V10.3257L6.28149 10.9702ZM2.83391 14.8471L2.91696 15.8436L2.91873 15.8435L2.83391 14.8471ZM4.74383 14.6845L4.82865 15.6809H4.82865L4.74383 14.6845ZM1 19.1596H2V19.1596H1ZM2.83391 21.1527L2.75086 22.1493H2.75086L2.83391 21.1527ZM4.74113 21.3116L4.82418 20.3151H4.82418L4.74113 21.3116ZM5.04648 26.4946L5.80987 27.1405H5.80987L5.04648 26.4946ZM6.28218 25.0342L5.5188 24.3883H5.5188L6.28218 25.0342ZM5.15904 29.2007L5.86615 28.4936L5.86615 28.4936L5.15904 29.2007ZM6.79915 30.8408L6.09204 31.5479L6.09204 31.5479L6.79915 30.8408ZM9.50525 30.9533L8.8607 30.1888L8.85931 30.19L9.50525 30.9533ZM10.9702 29.7183L11.6148 30.4829L11.6148 30.4829L10.9702 29.7183ZM14.8471 33.166L13.8506 33.249L14.8471 33.166ZM14.6882 31.2587L13.6917 31.3417V31.3417L14.6882 31.2587ZM16.8402 34.9999V33.9999H16.8402L16.8402 34.9999ZM19.1597 34.9999V35.9999V35.9999V34.9999ZM22.1493 33.249C22.1952 32.6987 21.7862 32.2153 21.2358 32.1695C20.6855 32.1236 20.2021 32.5326 20.1562 33.083L22.1493 33.249ZM33.083 20.1562C32.5326 20.2021 32.1236 20.6855 32.1695 21.2358C32.2153 21.7862 32.6987 22.1952 33.249 22.1493L33.083 20.1562ZM33.166 14.8471L33.083 15.8437V15.8437L33.166 14.8471ZM31.2587 14.6882L31.3417 13.6917H31.3417L31.2587 14.6882ZM30.9533 9.50525L31.7167 10.1512V10.1512L30.9533 9.50525ZM29.7176 10.9656L28.9543 10.3197L28.9543 10.3197L29.7176 10.9656ZM30.8408 6.79915L31.5479 6.09204L31.5479 6.09204L30.8408 6.79915ZM29.2007 5.15904L28.4936 5.86615L28.4936 5.86615L29.2007 5.15904ZM26.4946 5.04648L27.1391 5.81105L27.1405 5.80987L26.4946 5.04648ZM25.0296 6.28151L25.6741 7.04608L25.6741 7.04608L25.0296 6.28151ZM21.1527 2.83391L20.1562 2.91695V2.91695L21.1527 2.83391ZM21.3116 4.74113L22.3082 4.65809V4.65809L21.3116 4.74113ZM19.1596 1V0V0V1ZM16.8401 1L16.8401 2H16.8401V1ZM14.8471 2.83391L13.8505 2.75086V2.75086L14.8471 2.83391ZM14.6881 4.74115L13.6916 4.6581V4.6581L14.6881 4.74115ZM5.64323 13.952L6.59379 14.2625V14.2625L5.64323 13.952ZM6.39971 12.1239L7.29171 12.576V12.576L6.39971 12.1239ZM12.124 6.39983L12.5758 7.29194V7.29194L12.124 6.39983ZM13.9555 5.64236L13.645 4.69179V4.6918L13.9555 5.64236ZM22.0443 5.64234L21.7337 6.59291L21.7337 6.59291L22.0443 5.64234ZM23.8758 6.39983L23.424 7.29194L23.424 7.29194L23.8758 6.39983ZM29.5981 12.1208L28.706 12.5726V12.5726L29.5981 12.1208ZM30.3574 13.9556L31.3079 13.6448H31.3078L30.3574 13.9556ZM13.9556 30.3575L13.6451 31.308H13.6451L13.9556 30.3575ZM12.124 29.6L12.5758 28.7079V28.7079L12.124 29.6ZM6.40173 23.879L5.50962 24.3309V24.3309L6.40173 23.879ZM5.64246 22.0442L4.69198 22.355H4.69198L5.64246 22.0442ZM9.04245 15.7693C8.40503 18.7472 9.2925 22.0204 11.6517 24.3796L13.0659 22.9654C11.1886 21.0881 10.502 18.5058 10.9981 16.188L9.04245 15.7693ZM18.707 16.5857L16.5857 18.707L17.9999 20.1212L20.1212 17.9999L18.707 16.5857ZM24.3796 11.6517C22.0204 9.2925 18.7472 8.40503 15.7693 9.04245L16.188 10.9981C18.5058 10.502 21.0881 11.1886 22.9654 13.0659L24.3796 11.6517ZM27.0393 18.5892C27.0356 16.1668 26.2309 13.503 24.3796 11.6517L22.9654 13.0659C24.3521 14.4526 25.0362 16.5562 25.0393 18.5923L27.0393 18.5892ZM26.6679 23.1323L31.7885 28.253L33.2027 26.8387L28.0821 21.7181L26.6679 23.1323ZM28.253 31.7885L23.1323 26.6679L21.7181 28.0821L26.8388 33.2027L28.253 31.7885ZM11.6517 24.3796C13.503 26.2309 16.1668 27.0356 18.5892 27.0393L18.5923 25.0393C16.5562 25.0362 14.4526 24.3521 13.0659 22.9654L11.6517 24.3796ZM14.7141 9.92257L14.6026 10.1891L16.4474 10.9614L16.559 10.6949L14.7141 9.92257ZM14.8179 11.2824L18.707 15.1715L20.1212 13.7572L16.2321 9.86815L14.8179 11.2824ZM15.1715 18.707L11.2824 14.8179L9.86815 16.2321L13.7572 20.1212L15.1715 18.707ZM10.1891 14.6026L9.92258 14.7141L10.6949 16.559L10.9614 16.4474L10.1891 14.6026ZM23.1323 26.6679C21.876 25.4115 20.1226 25.0416 18.5923 25.0393L18.5892 27.0393C19.8622 27.0412 20.9923 27.3563 21.7181 28.0821L23.1323 26.6679ZM25.0393 18.5923C25.0416 20.1226 25.4115 21.876 26.6679 23.1323L28.0821 21.7181C27.3563 20.9923 27.0412 19.8622 27.0393 18.5892L25.0393 18.5923ZM15.7693 9.04245C15.2776 9.1477 14.8949 9.49072 14.7141 9.92258L16.559 10.6949C16.5004 10.8349 16.3703 10.9591 16.188 10.9981L15.7693 9.04245ZM20.1212 17.9999C21.2928 16.8283 21.2928 14.9288 20.1212 13.7572L18.707 15.1715C19.0975 15.562 19.0975 16.1951 18.707 16.5857L20.1212 17.9999ZM16.5857 18.707C16.1951 19.0975 15.562 19.0975 15.1715 18.707L13.7572 20.1212C14.9288 21.2928 16.8283 21.2928 17.9999 20.1212L16.5857 18.707ZM10.9981 16.188C10.9591 16.3703 10.8349 16.5004 10.6949 16.559L9.92258 14.7141C9.49072 14.8949 9.1477 15.2776 9.04245 15.7693L10.9981 16.188ZM4.45193 6.09204C3.34866 7.19532 3.27525 8.96011 4.28309 10.1512L5.80987 8.85931C5.47392 8.46228 5.49839 7.87402 5.86615 7.50626L4.45193 6.09204ZM6.09204 4.45193L4.45193 6.09204L5.86615 7.50626L7.50626 5.86615L6.09204 4.45193ZM10.1512 4.28309C8.96011 3.27525 7.19532 3.34866 6.09204 4.45193L7.50626 5.86615C7.87402 5.49839 8.46228 5.47392 8.85931 5.80987L10.1512 4.28309ZM11.6148 5.51693L10.1498 4.28192L8.8607 5.81104L10.3257 7.04606L11.6148 5.51693ZM4.28191 10.1498L5.51692 11.6148L7.04606 10.3257L5.81105 8.86071L4.28191 10.1498ZM2.91873 15.8435L4.82865 15.6809L4.65901 13.6881L2.74909 13.8507L2.91873 15.8435ZM2 16.8401C2 16.3201 2.39866 15.8868 2.91696 15.8436L2.75086 13.8505C1.19599 13.9801 0 15.2799 0 16.8401H2ZM2 19.1596V16.8401H0V19.1596H2ZM2.91695 20.1562C2.39866 20.113 2 19.6797 2 19.1596H0C-2.38419e-07 20.7199 1.19599 22.0197 2.75086 22.1493L2.91695 20.1562ZM4.82418 20.3151L2.91695 20.1562L2.75086 22.1493L4.65809 22.3082L4.82418 20.3151ZM5.80987 27.1405L7.04557 25.6801L5.5188 24.3883L4.28309 25.8486L5.80987 27.1405ZM5.86615 28.4936C5.49839 28.1258 5.47392 27.5375 5.80987 27.1405L4.28309 25.8486C3.27525 27.0397 3.34866 28.8045 4.45193 29.9078L5.86615 28.4936ZM7.50626 30.1337L5.86615 28.4936L4.45193 29.9078L6.09204 31.5479L7.50626 30.1337ZM8.85931 30.19C8.46228 30.5259 7.87402 30.5014 7.50626 30.1337L6.09204 31.5479C7.19532 32.6512 8.96011 32.7246 10.1512 31.7167L8.85931 30.19ZM10.3257 28.9538L8.8607 30.1888L10.1498 31.7179L11.6148 30.4829L10.3257 28.9538ZM15.8437 33.083L15.6847 31.1756L13.6917 31.3417L13.8506 33.249L15.8437 33.083ZM16.8402 33.9999C16.3201 33.9999 15.8869 33.6012 15.8437 33.083L13.8506 33.249C13.9802 34.8039 15.28 35.9999 16.8402 35.9999L16.8402 33.9999ZM19.1597 33.9999H16.8402V35.9999H19.1597V33.9999ZM20.1562 33.083C20.1131 33.6012 19.6798 33.9999 19.1597 33.9999V35.9999C20.72 35.9999 22.0198 34.8039 22.1493 33.249L20.1562 33.083ZM33.9999 19.1597C33.9999 19.6798 33.6012 20.1131 33.083 20.1562L33.249 22.1493C34.8039 22.0198 35.9999 20.72 35.9999 19.1597H33.9999ZM33.9999 16.8402V19.1597H35.9999V16.8402H33.9999ZM33.083 15.8437C33.6012 15.8869 33.9999 16.3201 33.9999 16.8402H35.9999C35.9999 15.28 34.8039 13.9802 33.249 13.8506L33.083 15.8437ZM31.1756 15.6847L33.083 15.8437L33.249 13.8506L31.3417 13.6917L31.1756 15.6847ZM30.19 8.85931L28.9543 10.3197L30.481 11.6116L31.7167 10.1512L30.19 8.85931ZM30.1337 7.50626C30.5014 7.87402 30.5259 8.46228 30.19 8.85931L31.7167 10.1512C32.7246 8.96011 32.6512 7.19532 31.5479 6.09204L30.1337 7.50626ZM28.4936 5.86615L30.1337 7.50626L31.5479 6.09204L29.9078 4.45193L28.4936 5.86615ZM27.1405 5.80987C27.5375 5.47392 28.1258 5.49839 28.4936 5.86615L29.9078 4.45193C28.8045 3.34866 27.0397 3.27525 25.8486 4.28309L27.1405 5.80987ZM25.6741 7.04608L27.1391 5.81105L25.85 4.28191L24.385 5.51694L25.6741 7.04608ZM20.1562 2.91695L20.3151 4.82418L22.3082 4.65809L22.1493 2.75086L20.1562 2.91695ZM19.1596 2C19.6797 2 20.113 2.39866 20.1562 2.91695L22.1493 2.75086C22.0197 1.19599 20.7199 4.76837e-07 19.1596 0V2ZM16.8401 2H19.1596V0H16.8401V2ZM15.8436 2.91696C15.8868 2.39866 16.3201 2 16.8401 2L16.8401 0C15.2799 -9.53674e-07 13.9801 1.19599 13.8505 2.75086L15.8436 2.91696ZM15.6847 4.82419L15.8436 2.91695L13.8505 2.75086L13.6916 4.6581L15.6847 4.82419ZM6.59379 14.2625C6.78182 13.687 7.01446 13.123 7.29171 12.576L5.50771 11.6719C5.18384 12.311 4.91217 12.9696 4.69268 13.6414L6.59379 14.2625ZM12.5758 7.29194C13.1236 7.01448 13.6895 6.78127 14.266 6.59292L13.645 4.6918C12.9725 4.91148 12.3121 5.1836 11.6721 5.50771L12.5758 7.29194ZM21.7337 6.59291C22.3103 6.78126 22.8761 7.01447 23.424 7.29194L24.3276 5.50772C23.6877 5.1836 23.0273 4.91147 22.3548 4.69178L21.7337 6.59291ZM28.706 12.5726C28.984 13.1215 29.2181 13.6891 29.4069 14.2664L31.3078 13.6448C31.0877 12.9715 30.8146 12.3095 30.4902 11.669L28.706 12.5726ZM14.2661 29.4069C13.6895 29.2186 13.1236 28.9853 12.5758 28.7079L11.6722 30.4921C12.3121 30.8162 12.9726 31.0884 13.6451 31.308L14.2661 29.4069ZM7.29383 23.4272C7.01585 22.8784 6.7817 22.3108 6.59294 21.7334L4.69198 22.355C4.91213 23.0283 5.18519 23.6903 5.50962 24.3309L7.29383 23.4272ZM13.6916 4.6581C13.6916 4.65815 13.6916 4.65795 13.6917 4.65766C13.6917 4.65739 13.6918 4.65737 13.6916 4.65768C13.6914 4.65828 13.6902 4.66093 13.6868 4.66499C13.6796 4.67378 13.6657 4.68503 13.645 4.69179L14.266 6.59292C15.0196 6.34674 15.6137 5.6759 15.6847 4.82419L13.6916 4.6581ZM15.6847 31.1757C15.6138 30.3239 15.0197 29.6531 14.2661 29.4069L13.6451 31.308C13.6657 31.3148 13.6797 31.3261 13.6869 31.3349C13.6903 31.3389 13.6915 31.3416 13.6917 31.3422C13.6918 31.3425 13.6918 31.3425 13.6917 31.3422C13.6917 31.3419 13.6916 31.3417 13.6917 31.3417L15.6847 31.1757ZM11.6148 30.4829C11.6148 30.4829 11.6146 30.483 11.6144 30.4831C11.6141 30.4833 11.6141 30.4833 11.6144 30.4832C11.615 30.4829 11.6178 30.4819 11.6231 30.4814C11.6345 30.4803 11.6525 30.4822 11.6722 30.4921L12.5758 28.7079C11.8703 28.3506 10.978 28.4038 10.3257 28.9538L11.6148 30.4829ZM20.3151 4.82417C20.3861 5.67588 20.9801 6.34672 21.7337 6.59291L22.3548 4.69178C22.3341 4.68502 22.3202 4.67377 22.3129 4.66497C22.3096 4.66091 22.3084 4.65827 22.3081 4.65767C22.308 4.65736 22.308 4.65737 22.3081 4.65764C22.3082 4.65794 22.3082 4.65814 22.3082 4.65809L20.3151 4.82417ZM7.04557 25.6801C7.59754 25.0278 7.65173 24.1339 7.29383 23.4272L5.50962 24.3309C5.51955 24.3505 5.52146 24.3685 5.52034 24.3799C5.51983 24.3852 5.5188 24.388 5.51854 24.3886C5.51841 24.3889 5.5184 24.3889 5.51854 24.3886C5.5187 24.3884 5.51883 24.3882 5.5188 24.3883L7.04557 25.6801ZM24.385 5.51694C24.385 5.51696 24.3851 5.51683 24.3854 5.51668C24.3856 5.51653 24.3857 5.51654 24.3854 5.51667C24.3847 5.51693 24.382 5.51795 24.3767 5.51847C24.3652 5.51957 24.3473 5.51765 24.3276 5.50772L23.424 7.29194C24.1294 7.64921 25.0218 7.59599 25.6741 7.04608L24.385 5.51694ZM4.65808 22.3082C4.65814 22.3082 4.65794 22.3082 4.65765 22.3081C4.65738 22.308 4.65737 22.308 4.65768 22.3081C4.65829 22.3084 4.66095 22.3096 4.66504 22.313C4.67388 22.3202 4.68518 22.3342 4.69198 22.355L6.59294 21.7334C6.34661 20.9801 5.67589 20.3861 4.82418 20.3151L4.65808 22.3082ZM28.9543 10.3197C28.4023 10.972 28.3481 11.866 28.706 12.5726L30.4902 11.669C30.4803 11.6494 30.4784 11.6314 30.4795 11.6199C30.48 11.6146 30.481 11.6119 30.4813 11.6112C30.4814 11.6109 30.4814 11.6109 30.4813 11.6112C30.4811 11.6114 30.481 11.6116 30.481 11.6116L28.9543 10.3197ZM4.82865 15.6809C5.67894 15.6085 6.348 15.0149 6.59379 14.2625L4.69268 13.6414C4.68591 13.6622 4.67466 13.6761 4.66587 13.6833C4.66182 13.6867 4.65918 13.6879 4.65858 13.6881C4.65827 13.6883 4.65829 13.6882 4.65856 13.6882C4.65886 13.6881 4.65906 13.6881 4.65901 13.6881L4.82865 15.6809ZM10.3257 7.04606C10.978 7.59599 11.8703 7.64921 12.5758 7.29194L11.6721 5.50771C11.6525 5.51765 11.6345 5.51957 11.6231 5.51846C11.6178 5.51795 11.615 5.51692 11.6144 5.51667C11.6141 5.51654 11.6141 5.51653 11.6144 5.51667C11.6146 5.51683 11.6148 5.51696 11.6148 5.51694L10.3257 7.04606ZM31.3417 13.6917C31.3417 13.6917 31.3419 13.6917 31.3422 13.6917C31.3424 13.6918 31.3425 13.6918 31.3421 13.6917C31.3415 13.6915 31.3389 13.6902 31.3348 13.6869C31.3259 13.6796 31.3146 13.6656 31.3079 13.6448L29.4069 14.2664C29.6532 15.0197 30.3239 15.6138 31.1757 15.6847L31.3417 13.6917ZM5.51692 11.6148C5.51694 11.6148 5.51681 11.6147 5.51665 11.6144C5.51651 11.6141 5.51652 11.6141 5.51665 11.6144C5.5169 11.615 5.51792 11.6178 5.51842 11.623C5.51953 11.6344 5.51761 11.6523 5.50771 11.6719L7.29171 12.576C7.64924 11.8705 7.59597 10.978 7.04606 10.3257L5.51692 11.6148Z" fill="#0D0D0F"/>
</svg>
